<?xml version="1.0" encoding="utf-8"?>
<!-- Generator: Adobe Illustrator 15.1.0, SVG Export Plug-In  -->
<!DOCTYPE svg PUBLIC "-//W3C//DTD SVG 1.1//EN" "http://www.w3.org/Graphics/SVG/1.1/DTD/svg11.dtd" [
	<!ENTITY ns_flows "http://ns.adobe.com/Flows/1.0/">
]>
<svg version="1.1"
	 xmlns="http://www.w3.org/2000/svg" xmlns:xlink="http://www.w3.org/1999/xlink" xmlns:a="http://ns.adobe.com/AdobeSVGViewerExtensions/3.0/"
	 x="0px" y="0px" width="500px" height="500px" viewBox="-149.34 -24.965 500 500"
	 overflow="visible" enable-background="new -149.34 -24.965 500 500" xml:space="preserve">
<defs>
</defs>
<path fill="#90CAC0" d="M0,442.498c0-3.676,1.173-6.757,3.504-9.26c2.339-2.503,5.178-3.755,8.51-3.755h10.011
	c20.688,0,34.539-24.199,41.547-72.581L100.473,91.58c3.371-24.825,15.268-46.294,35.696-64.408C156.591,9.057,179.147,0,203.847,0
	h5.507c6.007,0,9.01,3.754,9.01,11.247c0,3.754-1.087,6.82-3.254,9.206c-2.174,2.386-4.927,3.574-8.259,3.574h-5.507
	c-18.356,0-34.961,6.766-49.806,20.281c-14.853,13.515-23.612,29.291-26.279,47.311l-12.569,89.085h74.084
	c6.335,0,9.511,3.175,9.511,9.511c0,3.339-1.088,6.179-3.254,8.509c-2.175,2.339-4.928,3.504-8.26,3.504h-75.107L87.849,356.941
	c-9.104,64.377-31.715,96.569-67.827,96.569H9.511c-3.003,0-5.334-1.087-7.008-3.254C0.837,448.083,0,445.502,0,442.498z"/>
</svg>
